# xmcd
#
# Track frame offsets:
#	150
#	18680
#	32527
#	46785
#	58340
#	70400
#	83157
#	94375
#	107967
#	121432
#	138555
#	149670
#	162540
#	175115
#	186242
#	199107
#	210650
#	223702
#	236302
#	247097
#	262147
#	273245
#	285482
#	300067
#	314855
#	326110
#	339465
#
# Disc length: 4675 seconds
#
# Revision: 0
# Processed by: cddbd v1.5.1PL0 Copyright (c) Steve Scherf et al.
# Submitted via: audiograbber 1.83.01
#
DISCID=ac12411b
DTITLE=Hank Snow - The Singing Ranger, Vol. 4 (6 of 9)
DYEAR=1900
DGENRE=
TTITLE0=Breakfast With the Blues
TTITLE1=Trying to Get My Baby Off My Mind
TTITLE2=Trouble in Mind
TTITLE3=I'm Gonna Bid My Blues Goodbye
TTITLE4=Love Is So Elusive
TTITLE5=I've Done at Least One Thing
TTITLE6=Don't Rock the Boat
TTITLE7=If You Could Just Remember
TTITLE8=That Heart Belongs to Me
TTITLE9=I'm Still Movin' On
TTITLE10=Inside Out
TTITLE11=Somewhere Someone Is Waiting for You
TTITLE12=I Put Her on (And Wore Away Her Time)
TTITLE13=Who's Been Here Since I've Been Gone?
TTITLE14=That's When He Dropped the World in My Hands
TTITLE15=Night I Stole Old Sammy Morgan's Gin
TTITLE16=I Wonder Where You Are Tonight
TTITLE17=Stolen Moments
TTITLE18=It Takes Too Long
TTITLE19=Nevertheless (I'm in Love with You)
TTITLE20=Forever and One Day
TTITLE21=Just One of a Kind
TTITLE22=My Happiness
TTITLE23=The Mysterious Lady from St. Martinque
TTITLE24=Ramblin' Rose
TTITLE25=A Good Gal Is Hard to Find
TTITLE26=Hula Love
EXTD=
EXTT0=
EXTT1=
EXTT2=
EXTT3=
EXTT4=
EXTT5=
EXTT6=
EXTT7=
EXTT8=
EXTT9=
EXTT10=
EXTT11=
EXTT12=
EXTT13=
EXTT14=
EXTT15=
EXTT16=
EXTT17=
EXTT18=
EXTT19=
EXTT20=
EXTT21=
EXTT22=
EXTT23=
EXTT24=
EXTT25=
EXTT26=
PLAYORDER=
